<?xml version="1.0" encoding="UTF-8" standalone="no"?>
<!DOCTYPE svg PUBLIC "-//W3C//DTD SVG 1.1//EN" "http://www.w3.org/Graphics/SVG/1.1/DTD/svg11.dtd">
<svg width="100%" height="100%" viewBox="0 0 512 512" version="1.1" xmlns="http://www.w3.org/2000/svg" xmlns:xlink="http://www.w3.org/1999/xlink" xml:space="preserve" xmlns:serif="http://www.serif.com/" style="fill-rule:evenodd;clip-rule:evenodd;stroke-linejoin:round;stroke-miterlimit:2;">
    <path d="M0,96C0,60.7 28.7,32 64,32L448,32C483.3,32 512,60.7 512,96L512,416C512,451.3 483.3,480 448,480L64,480C28.7,480 0,451.3 0,416L0,96ZM64,160L64,416L224,416L224,160L64,160ZM448,160L288,160L288,416L448,416L448,160Z" style="fill:rgb(44,103,27);fill-rule:nonzero;"/>
    <g transform="matrix(1,0,0,1,-46.2287,142.008)">
        <g transform="matrix(288,0,0,288,271.463,249.825)">
        </g>
        <text x="111.291px" y="249.825px" style="font-family:'ArialMT', 'Arial', sans-serif;font-size:288px;fill:rgb(44,103,27);stroke:black;stroke-width:3px;">6</text>
    </g>
    <g transform="matrix(1,0,0,1,176.282,139.573)">
        <g transform="matrix(288,0,0,288,271.463,249.825)">
        </g>
        <text x="111.291px" y="249.825px" style="font-family:'ArialMT', 'Arial', sans-serif;font-size:288px;fill:rgb(44,103,27);stroke:black;stroke-width:3px;">8</text>
    </g>
</svg>
